# xmcd
#
# Track frame offsets: 
#        150
#        21497
#        35549
#        48179
#        66456
#        88515
#        109549
#        141846
#        160761
#
# Disc length: 2356 seconds
#
# Revision: 0
# Processed by: cddbd v1.5.1PL0 Copyright (c) Steve Scherf et al.
# Submitted via: ExactAudioCopy v0.95a5
#
DISCID=74093209
DTITLE=Blues Power Band - Ballbreakers Associated
DYEAR=2004
DGENRE=Rock
TTITLE0=Making Love Is Good For You (Tony Joe White)
TTITLE1=Ballbreakers Associated (Joachim - Lavisse)
TTITLE2=My Babe (Ron Holden)
TTITLE3=Am I Right (Merllié - Guegan)
TTITLE4=Kiss (Prince)
TTITLE5=Living In the West Side (Joachim)
TTITLE6=Cold cold Feeling (Robinson)
TTITLE7=Fire (Jimi Hendrix)
TTITLE8=Bonus Live 9 - Walking The Dog (Rufus Thomas)
EXTD=
EXTT0=
EXTT1=
EXTT2=
EXTT3=
EXTT4=
EXTT5=
EXTT6=
EXTT7=
EXTT8=
PLAYORDER=
